<svg id="Layer_1" data-name="Layer 1" xmlns="http://www.w3.org/2000/svg" viewBox="0 0 698.74 650.6"><defs><style>.cls-1{fill:#dfdfdf;}.cls-2{fill:#1f502a;}.cls-3{fill:#71bd43;}</style></defs><rect class="cls-1" x="-9.52" y="-8.91" width="723.35" height="692.16"/><path class="cls-2" d="M305.21,403.1v23.84h8.67v-9h6.34l5.58,9h9.09l-7.37-10.29c9.6-6.78,7.7-17.9-.09-21.62,0,0-3.05-.73-4.72-.9s-17.5,0-17.5,0v6.39h16.13c5.6.29,6.43,10,0,10.9h-7.55v-8.15l-8.58.17"/><path class="cls-2" d="M360,394.06h-8.49l-14.67,32.88h8.62l2.44-6.47,15.83.13,2.32,6.34H375Zm-8.88,19.78,4.76-11.64,4.89,11.64Z"/><polygon class="cls-2" points="369.24 393.7 382.42 415.19 382.42 426.94 390.52 426.94 390.52 415.38 403 393.7 394.9 393.7 386.66 408.02 377.53 393.7 369.24 393.7"/><polygon class="cls-2" points="432.51 393.7 406.09 393.7 406.09 426.94 432.51 426.94 432.51 420.17 414.24 420.17 414.24 413.39 430.2 413.39 430.2 406.79 414.41 406.79 414.41 400.27 432.51 400.27 432.51 393.7"/><path class="cls-2" d="M449.81,393.7a29.08,29.08,0,0,1,8,1.05,18.93,18.93,0,0,1,6.37,3.11,14.3,14.3,0,0,1,4.19,5.17,16.17,16.17,0,0,1,1.51,7.18,16.78,16.78,0,0,1-1.47,7.18,15.06,15.06,0,0,1-4.08,5.31,18,18,0,0,1-6.27,3.28,27.29,27.29,0,0,1-8,1.11h-9.38V393.7ZM455.37,421a11.13,11.13,0,0,0,4.32-2,8.81,8.81,0,0,0,2.75-3.52,13,13,0,0,0,1-5.29,11.67,11.67,0,0,0-1-5,9,9,0,0,0-2.75-3.42,11.6,11.6,0,0,0-4.26-2,23,23,0,0,0-5.51-.62h-3.07v22.35h2.85A24.78,24.78,0,0,0,455.37,421Z"/><rect class="cls-3" x="229.15" y="394.06" width="65.26" height="32.89"/><path class="cls-1" d="M252.84,418.48a7.39,7.39,0,0,1-4.23,1.39H237.72l.27-.93a.59.59,0,0,1,.58-.44h8a3,3,0,0,0,1.88-.69,3.42,3.42,0,0,0,1.17-1.72l3-11a2,2,0,0,0-.27-1.71,1.72,1.72,0,0,0-1.49-.7,2.92,2.92,0,0,0-1.87.7,3.23,3.23,0,0,0-1.17,1.71l-.64,2.37a2.51,2.51,0,0,1-2.46,1.87h-4.14l.83-3,.83-3.12a2.58,2.58,0,0,1,.91-1.36,2.51,2.51,0,0,1,1.55-.51h8.92a4.45,4.45,0,0,1,3.8,1.74,5,5,0,0,1,.65,4.32c0,.1-.09.32-.17.66s-.28,1-.45,1.68-.34,1.33-.52,2-.33,1.21-.44,1.67-.16.53-.2.63l-.56,2.09a1.91,1.91,0,0,0,.31,1.8,2,2,0,0,0,1.47.59l-.39,1.37h-1.75a2.64,2.64,0,0,1-2.29-1.08A1.27,1.27,0,0,1,252.84,418.48Z"/><path class="cls-1" d="M255.57,425.27a1.58,1.58,0,0,1-1.36-.63,1.66,1.66,0,0,1-.32-1,2.29,2.29,0,0,1,.08-.56,3.12,3.12,0,0,1,1.08-1.56,2.71,2.71,0,0,1,1.72-.63,1.53,1.53,0,0,1,1.65,1.58,2.6,2.6,0,0,1-.07.61,3,3,0,0,1-1.06,1.56A2.71,2.71,0,0,1,255.57,425.27Zm3.9-5.4a7.5,7.5,0,0,0,4.73-1.75,8.47,8.47,0,0,0,3-4.32l2.8-10.45h-4.12a2.46,2.46,0,0,0-1.54.51,2.53,2.53,0,0,0-.92,1.37l-2.9,10.88a3.2,3.2,0,0,1-1.25,1.8,3.23,3.23,0,0,1-1.79.59h-.37v1.37Zm1,5.4a1.58,1.58,0,0,1-1.36-.63,1.66,1.66,0,0,1-.32-1,2.29,2.29,0,0,1,.08-.56,2.93,2.93,0,0,1,1.07-1.56,2.7,2.7,0,0,1,1.7-.63,1.6,1.6,0,0,1,1.37.63,1.67,1.67,0,0,1,.31,1,2.2,2.2,0,0,1-.07.56,3,3,0,0,1-1.07,1.56A2.74,2.74,0,0,1,260.49,425.27Z"/><path class="cls-1" d="M273.92,397.6a2.51,2.51,0,0,1,2.46-1.87h4.11l-5.92,22.07a8.42,8.42,0,0,1-3,4.33,7.49,7.49,0,0,1-4.72,1.76Z"/><path class="cls-1" d="M272.14,425.27c.08-.3.17-.61.26-.92a.57.57,0,0,1,.57-.46,3.26,3.26,0,0,0,1.79-.59,3.11,3.11,0,0,0,1.25-1.78l4.87-18.27a2.5,2.5,0,0,1,.92-1.36,2.46,2.46,0,0,1,1.54-.51h4.12l-4.78,17.83a8.45,8.45,0,0,1-3,4.31,7.47,7.47,0,0,1-4.72,1.75Z"/><path class="cls-3" d="M227,191l117.87,60.56,5,17c24.5-7.93,46.26-23.12,65.37-45.29l-8.75.86,16.64-11.84L419.83,233l-2.74-8.24c-13.62,21.53-32.42,40.53-56.79,56.79-28.43,20.31-52.9,44-71.37,72.75a418.82,418.82,0,0,1,16.3-67.6S289.19,297,289.61,297s-22.3-14.41-22.3-14.41l56.79,4.68-59.71-11.71S246.89,255,247.54,255,329,274.89,329,274.89l-83.38-28.3c-4.71-7.62-8.33-15.39-10.17-23.42l101,39.63L232.87,215.06Z"/><path class="cls-2" d="M300.42,211.2v12.61l36,19,17.89.52c8.22.15,15.35,2.11,18.91,9.91,9.81-5.09,18.79-10.92,25.35-18.92,0,0-9.71-15.12-26-20.14a83.8,83.8,0,0,0-18.4-1.73C342.76,212.49,300.42,211.2,300.42,211.2Z"/><path class="cls-2" d="M334.91,306.42c27.83-20.1,54.18-40,69.48-58.16,6.8,36.9-8.07,53.87-32.94,61.63l31.27,48.64H366.18Z"/><path class="cls-2" d="M329.25,311.82v46.71H297.08V348A274.46,274.46,0,0,1,329.25,311.82Z"/></svg>